<?xml version="1.0" encoding="UTF-8"?>
<svg xmlns="http://www.w3.org/2000/svg" xmlns:xlink="http://www.w3.org/1999/xlink" width="113.39pt" height="113.39pt" viewBox="0 0 113.39 113.39">
<defs>
<clipPath id="clip-0">
<path clip-rule="nonzero" d="M 0 84 L 29 84 L 29 113.390625 L 0 113.390625 Z M 0 84 "/>
</clipPath>
<clipPath id="clip-1">
<path clip-rule="nonzero" d="M 28 84 L 57 84 L 57 113.390625 L 28 113.390625 Z M 28 84 "/>
</clipPath>
<clipPath id="clip-2">
<path clip-rule="nonzero" d="M 56 84 L 86 84 L 86 113.390625 L 56 113.390625 Z M 56 84 "/>
</clipPath>
<clipPath id="clip-3">
<path clip-rule="nonzero" d="M 84 84 L 113.390625 84 L 113.390625 113.390625 L 84 113.390625 Z M 84 84 "/>
</clipPath>
<clipPath id="clip-4">
<path clip-rule="nonzero" d="M 84 56 L 113.390625 56 L 113.390625 86 L 84 86 Z M 84 56 "/>
</clipPath>
<clipPath id="clip-5">
<path clip-rule="nonzero" d="M 84 28 L 113.390625 28 L 113.390625 57 L 84 57 Z M 84 28 "/>
</clipPath>
<clipPath id="clip-6">
<path clip-rule="nonzero" d="M 84 0 L 113.390625 0 L 113.390625 29 L 84 29 Z M 84 0 "/>
</clipPath>
<clipPath id="clip-7">
<path clip-rule="nonzero" d="M 0 56 L 58 56 L 58 113.390625 L 0 113.390625 Z M 0 56 "/>
</clipPath>
<clipPath id="clip-8">
<path clip-rule="nonzero" d="M 56 56 L 113.390625 56 L 113.390625 113.390625 L 56 113.390625 Z M 56 56 "/>
</clipPath>
<clipPath id="clip-9">
<path clip-rule="nonzero" d="M 56 0 L 113.390625 0 L 113.390625 58 L 56 58 Z M 56 0 "/>
</clipPath>
</defs>
<g clip-path="url(#clip-0)">
<path fill="none" stroke-width="5" stroke-linecap="round" stroke-linejoin="round" stroke="rgb(0%, 0%, 0%)" stroke-opacity="1" stroke-miterlimit="10" d="M 5 4.99375 L 285.976562 4.99375 L 285.976562 285.970313 L 5 285.970313 Z M 5 4.99375 " transform="matrix(0.1, 0, 0, -0.1, 0, 113.39)"/>
</g>
<path fill="none" stroke-width="5" stroke-linecap="round" stroke-linejoin="round" stroke="rgb(0%, 0%, 0%)" stroke-opacity="1" stroke-miterlimit="10" d="M 5 285.970313 L 285.976562 285.970313 L 285.976562 566.946875 L 5 566.946875 Z M 5 285.970313 " transform="matrix(0.1, 0, 0, -0.1, 0, 113.39)"/>
<path fill="none" stroke-width="5" stroke-linecap="round" stroke-linejoin="round" stroke="rgb(0%, 0%, 0%)" stroke-opacity="1" stroke-miterlimit="10" d="M 5 566.946875 L 285.976562 566.946875 L 285.976562 847.884375 L 5 847.884375 Z M 5 566.946875 " transform="matrix(0.1, 0, 0, -0.1, 0, 113.39)"/>
<path fill="none" stroke-width="5" stroke-linecap="round" stroke-linejoin="round" stroke="rgb(0%, 0%, 0%)" stroke-opacity="1" stroke-miterlimit="10" d="M 5 847.884375 L 285.976562 847.884375 L 285.976562 1128.860938 L 5 1128.860938 Z M 5 847.884375 " transform="matrix(0.1, 0, 0, -0.1, 0, 113.39)"/>
<g clip-path="url(#clip-1)">
<path fill="none" stroke-width="5" stroke-linecap="round" stroke-linejoin="round" stroke="rgb(0%, 0%, 0%)" stroke-opacity="1" stroke-miterlimit="10" d="M 285.976562 4.99375 L 566.914062 4.99375 L 566.914062 285.970313 L 285.976562 285.970313 Z M 285.976562 4.99375 " transform="matrix(0.1, 0, 0, -0.1, 0, 113.39)"/>
</g>
<path fill="none" stroke-width="5" stroke-linecap="round" stroke-linejoin="round" stroke="rgb(0%, 0%, 0%)" stroke-opacity="1" stroke-miterlimit="10" d="M 285.976562 285.970313 L 566.914062 285.970313 L 566.914062 566.946875 L 285.976562 566.946875 Z M 285.976562 285.970313 " transform="matrix(0.1, 0, 0, -0.1, 0, 113.39)"/>
<path fill="none" stroke-width="5" stroke-linecap="round" stroke-linejoin="round" stroke="rgb(0%, 0%, 0%)" stroke-opacity="1" stroke-miterlimit="10" d="M 285.976562 566.946875 L 566.914062 566.946875 L 566.914062 847.884375 L 285.976562 847.884375 Z M 285.976562 566.946875 " transform="matrix(0.1, 0, 0, -0.1, 0, 113.39)"/>
<path fill="none" stroke-width="5" stroke-linecap="round" stroke-linejoin="round" stroke="rgb(0%, 0%, 0%)" stroke-opacity="1" stroke-miterlimit="10" d="M 285.976562 847.884375 L 566.914062 847.884375 L 566.914062 1128.860938 L 285.976562 1128.860938 Z M 285.976562 847.884375 " transform="matrix(0.1, 0, 0, -0.1, 0, 113.39)"/>
<g clip-path="url(#clip-2)">
<path fill="none" stroke-width="5" stroke-linecap="round" stroke-linejoin="round" stroke="rgb(0%, 0%, 0%)" stroke-opacity="1" stroke-miterlimit="10" d="M 566.914062 4.99375 L 847.890625 4.99375 L 847.890625 285.970313 L 566.914062 285.970313 Z M 566.914062 4.99375 " transform="matrix(0.1, 0, 0, -0.1, 0, 113.39)"/>
</g>
<path fill="none" stroke-width="5" stroke-linecap="round" stroke-linejoin="round" stroke="rgb(0%, 0%, 0%)" stroke-opacity="1" stroke-miterlimit="10" d="M 566.914062 285.970313 L 847.890625 285.970313 L 847.890625 566.946875 L 566.914062 566.946875 Z M 566.914062 285.970313 " transform="matrix(0.1, 0, 0, -0.1, 0, 113.39)"/>
<path fill="none" stroke-width="5" stroke-linecap="round" stroke-linejoin="round" stroke="rgb(0%, 0%, 0%)" stroke-opacity="1" stroke-miterlimit="10" d="M 566.914062 566.946875 L 847.890625 566.946875 L 847.890625 847.884375 L 566.914062 847.884375 Z M 566.914062 566.946875 " transform="matrix(0.1, 0, 0, -0.1, 0, 113.39)"/>
<path fill="none" stroke-width="5" stroke-linecap="round" stroke-linejoin="round" stroke="rgb(0%, 0%, 0%)" stroke-opacity="1" stroke-miterlimit="10" d="M 566.914062 847.884375 L 847.890625 847.884375 L 847.890625 1128.860938 L 566.914062 1128.860938 Z M 566.914062 847.884375 " transform="matrix(0.1, 0, 0, -0.1, 0, 113.39)"/>
<g clip-path="url(#clip-3)">
<path fill="none" stroke-width="5" stroke-linecap="round" stroke-linejoin="round" stroke="rgb(0%, 0%, 0%)" stroke-opacity="1" stroke-miterlimit="10" d="M 847.890625 4.99375 L 1128.867188 4.99375 L 1128.867188 285.970313 L 847.890625 285.970313 Z M 847.890625 4.99375 " transform="matrix(0.1, 0, 0, -0.1, 0, 113.39)"/>
</g>
<g clip-path="url(#clip-4)">
<path fill="none" stroke-width="5" stroke-linecap="round" stroke-linejoin="round" stroke="rgb(0%, 0%, 0%)" stroke-opacity="1" stroke-miterlimit="10" d="M 847.890625 285.970313 L 1128.867188 285.970313 L 1128.867188 566.946875 L 847.890625 566.946875 Z M 847.890625 285.970313 " transform="matrix(0.1, 0, 0, -0.1, 0, 113.39)"/>
</g>
<g clip-path="url(#clip-5)">
<path fill="none" stroke-width="5" stroke-linecap="round" stroke-linejoin="round" stroke="rgb(0%, 0%, 0%)" stroke-opacity="1" stroke-miterlimit="10" d="M 847.890625 566.946875 L 1128.867188 566.946875 L 1128.867188 847.884375 L 847.890625 847.884375 Z M 847.890625 566.946875 " transform="matrix(0.1, 0, 0, -0.1, 0, 113.39)"/>
</g>
<g clip-path="url(#clip-6)">
<path fill="none" stroke-width="5" stroke-linecap="round" stroke-linejoin="round" stroke="rgb(0%, 0%, 0%)" stroke-opacity="1" stroke-miterlimit="10" d="M 847.890625 847.884375 L 1128.867188 847.884375 L 1128.867188 1128.860938 L 847.890625 1128.860938 Z M 847.890625 847.884375 " transform="matrix(0.1, 0, 0, -0.1, 0, 113.39)"/>
</g>
<g clip-path="url(#clip-7)">
<path fill="none" stroke-width="10" stroke-linecap="round" stroke-linejoin="round" stroke="rgb(0%, 49.804688%, 100%)" stroke-opacity="1" stroke-miterlimit="10" d="M 5 4.99375 L 566.914062 4.99375 L 566.914062 566.946875 L 5 566.946875 Z M 5 4.99375 " transform="matrix(0.1, 0, 0, -0.1, 0, 113.39)"/>
</g>
<path fill="none" stroke-width="10" stroke-linecap="round" stroke-linejoin="round" stroke="rgb(0%, 49.804688%, 100%)" stroke-opacity="1" stroke-miterlimit="10" d="M 5 566.946875 L 566.914062 566.946875 L 566.914062 1128.860938 L 5 1128.860938 Z M 5 566.946875 " transform="matrix(0.1, 0, 0, -0.1, 0, 113.39)"/>
<g clip-path="url(#clip-8)">
<path fill="none" stroke-width="10" stroke-linecap="round" stroke-linejoin="round" stroke="rgb(0%, 49.804688%, 100%)" stroke-opacity="1" stroke-miterlimit="10" d="M 566.914062 4.99375 L 1128.867188 4.99375 L 1128.867188 566.946875 L 566.914062 566.946875 Z M 566.914062 4.99375 " transform="matrix(0.1, 0, 0, -0.1, 0, 113.39)"/>
</g>
<g clip-path="url(#clip-9)">
<path fill="none" stroke-width="10" stroke-linecap="round" stroke-linejoin="round" stroke="rgb(0%, 49.804688%, 100%)" stroke-opacity="1" stroke-miterlimit="10" d="M 566.914062 566.946875 L 1128.867188 566.946875 L 1128.867188 1128.860938 L 566.914062 1128.860938 Z M 566.914062 566.946875 " transform="matrix(0.1, 0, 0, -0.1, 0, 113.39)"/>
</g>
</svg>
